<mxfile host="65bd71144e">
    <diagram id="yn6D_odh12bHCshazwg3" name="Page-1">
        <mxGraphModel dx="990" dy="567" grid="1" gridSize="10" guides="1" tooltips="1" connect="1" arrows="1" fold="1" page="1" pageScale="1" pageWidth="850" pageHeight="1100" math="0" shadow="0">
            <root>
                <mxCell id="0"/>
                <mxCell id="1" parent="0"/>
                <mxCell id="125" value="" style="rounded=0;whiteSpace=wrap;html=1;" vertex="1" parent="1">
                    <mxGeometry x="10" y="10" width="830" height="1080" as="geometry"/>
                </mxCell>
                <mxCell id="24" value="" style="shape=image;verticalLabelPosition=bottom;labelBackgroundColor=#ffffff;verticalAlign=top;aspect=fixed;imageAspect=0;image=data:image/png,iVBORw0KGgoAAAANSUhEUgAAAQIAAAECCAYAAAAVT9lQAAAACXBIWXMAAAsTAAALEwEAmpwYAAAAGXRFWHRTb2Z0d2FyZQBBZG9iZSBJbWFnZVJlYWR5ccllPAAAG5ZJREFUeNrsXV1onFd6PvMjjSxLnilOSdoEPGENoSxUE9qL0k3xF1qa3BRNIVDJDmh8USil4PHV7s3iEb3ZO49hL3JTPLowyl3k7G7xXnlEs9BlWzIqdGkhuxmVbOOFhEqRZMvS/PS80jvJWJ7v/5zv93ngZGxn5vvO73Oe9z3vOSeztHTVEEJQAgAgnWhnmQTiQgQ1mcoxyGeZ8xoHoP3R/kZ+xAjr6/caUc/x8vI1ynRL5rUdg3yWY1KnJ3lE+6e7/bNQRQAAgAgAAAARAAAAIgAAAEQAAACIAAAAEAEAACACAABABAAAgAgAAAARAAAAIgAAAEQAAACIAAAAEAEAACACAABABAAAgAgAAAARAAAAIgAAAEQAAACIAAAAEAEAACACAABABAAAgAgAAAARAAAAIgAAAEQAAACIAAAAEAEAACACAABABAAAgAgAAAARAAAAIgAAAEQAAACIAAAAEAEAACACAAAcIrO0dLUhP2sydWOQ3wWZtmXaiXg+SzJdkmlL94uGw+HMUIgZ+TknU16m8/Kf8/w/Z+R/Z55v9cyo/nq5XG4qI8SR/POvM5nMIdo/Xu2vAGWZWnn+S5v+EoNMNzmfnYjns8Lk2lD50KOjo5eOj48v9/v9ihzwlweDwYKPjnqCc+fOnXw+efLkdyURHGSz2Y+yuVxnZmbmo3wut4/2j077awLlU4yIoLu+fq8d9RwvL1+jmaAT9bzKfNLHjop8fuc7f1aVH4ZMVZ5llGJ6evrkc29vjz5ITbzF6bsyrdHA+9nP/qWN9g+n/QPIqzFOBECEIAd/jQf+YshZWaEk87NJs1tUCAFQDxBBdAa/wTKNCKAYsexdkemhzON9yqMkhB20GIgAUDf4Szz46zpkvwaQQumSYpFksIEWTA6wfBgOAZRlIsdXV6bbMSGBEUitfCDz30JLQhEAHglAnHqSVxJQnBUuTxWmAhQB4FwB0Az6aUJIYNx30GYTBwARAGY+ADYBkkYA41gAGcA0AEzQHwxeYR+A6hWAbfF8FGhFhLvSQGRAiqeKlgcRAKcqwLhw4cL758+ff9HHQO+MpZMgGqd2uHw/kQLNzgYTBKUgnJGLpH5kPuvoBSCCVJsBPCsuDodDtwO/LdMGD/iun3zI34/Cb9vjPgqerats1+vCDfmuDQQegQjSSgJVJoGii8FPA781NnC1gcmFfBVNJoUaJx1KYYPegZUEEEHaVMCGi1k29Nh9JoUGJQ5lbir2LxT5mTX0kPgAqwb+VEDXAQnsyrQq0+/IQViLkmyWeWnNzs6+l8/nNxU/eoVDpgEogkSrAJrx7JYDezL9LQ22KJeHziAoFAptnsFJ3SwoejSpDpABFEEiSYA88B0bEtiVM+za1NTUz6NOAmdNBpmofHcUPfIKVAGIIIkkQMtiHwtrBxv5AMrz8/MtVgSxAy//XVf0OCwlggiSYwrQkpg43RxkBjqS6k32AcTeW85K5k1x6t/wg0VepQBABLE3Bch+tjogZJUkddLWzrk8hgIyqKEngQjiTAJVJgEz59k2q4BGUuuAYxzqIAIQQZr9AR8I8/V1OqmnkoYIOjYTbvp4xCWYByCCOJJAy8YfcFMOjlTtwZdlbTL5eQU2I0UciCP4hgC+3itg8hWylaspjqMnid8V3qIQydfQRC+DIogDCbQtSGArLaaAhSrY8eEvMNDLQARRJ4GysHYKEgkYfncFJshf4CUcucgrMABMg0iSwGh50EzurlFsALrJM2jI9NDD74hwO6g+KAKQQDJUQdujKoAiABGABBKGJogARAASgCqgkOttlz/D4aYgApBAArEBIgARgASAlsvvL6DKQARhk0DJhgTugwRcmwcdD+YBACKILAlQnEAtyPwkKPa+jSEEIogTCdgFC+0ERAANcRqmm5SbgUAEIIJYoGlBArR3oBYQCYwI4BYrEzrlqJGA+kWAEIgg8mrA7oDRqu47BejMPpnGCWAcN+JuIgRxJwMAIvAzAMnmv2Hxles6NxD1+v25417v2+I0FPeSiRr5a5X7F5h02iEcGAqHYQKQTyAJ0DLhXYuvrOk8XXjs7sPzFiaJoWo2ZVXREOHdttwVwdytCIAIXA0Kq5l+S+cyIfsCblncfbityiRxcb9CEERwBUMJRBAVEhhdP1a0mImrGt9NKsPqkFMlKxT8rjqnYgSqvothFH9klpau0ixWFu4jxcJAk/P53Iz61Vdffa/f779l9sPp6envS7X+kQ5/wP7eXlOqgG+N/m1qakoUZmaE/PfTSs5kfjU3P1/P53L7ft61v7//Tq/Xq8l3mZkdolAo3JydnXWjOEYKyVP77+3t1WSebFWJrIPflkqlJV3tHzFUuF7jcK8D5bM7IoJaTJh9geX1M7NqfzB4adDvv2baCbPZ38hB+InqzMgBOScHwcJZZSXfJ3Iyyf9HI2B/Kp8nNeD5whMuH9nhM3bfzcl3ZTMZN6qj7Gdml0RYHg4G9j4CmSeuB+XtH0GU2G+yFYMxdSICRh24tb5+rxH1HC8vXyP7vyHz2h6TyhU7v4DQEDQ09t7nzKv5+XkxNzcnPv/8c1+OQV4BoFnwNRc/q7tZEZF1etLuXtt/5Bdx8FXyzxiq2z+i/dTgfBoxGFON2PsIxmxzK1u5ppEErN7b80oCTADUQElywiHmIMKIu7PQKnKQsKo66MWBU3Ik0f/bIwk4nWHjhh0Mt+gitgFFfBPRio0UbWgggbawWTen25Clnf6Fx9cYCe1rUAQgAm0mgRVqGl7dEvb76jf5NmTgWXRRBSAC1bCT5jpMAloKWrT5mrZYhbgD+xJABEpBa+nC2om2LRTfqsPOwdsOvlpL01VoLkyZLQw1EIEyDIfDGQqosflaXeVgHHMO2mGND/UE4B8AEehEr99/zSqqjuxzDYOxIew31ZBJUE9pH3JyTHkbQw1EoGpmrkpJYHeqT03xO0n23nBCFik0CUYogghABEGRgJNVgjUN9xM68TVs87XhqYPDsw+2cW8kiEClPC8GKc35cJMFh3lLK8pQAyCCIGcdO3ne1OAgdDLAt3UecpIQ/wAcqCCCQOT5rlC8XMjqwsmpO42U9x8npgEUAYggEHne1OCoc2Jm7KZZDbBqsmub+yl2ooIIFHa0wNUAk48TT3gr5X3HiRqAWQAiUDIr2w1IHWrAqdxPOxHYhVLvgghABH5n5bJwthVXtRowHPoGthE7b6sINmAWgAiCmJXXNHS0msPvpXqm470XdoTZxPACEfjtZE6O6G4ofm9JON852E55v7Fzpm5BMYEI/MLJTLKpIVqNSKAIIlDiH4AaABH4ttGdnNOno6MZDr+3nWbb18GqStqDrEAEQfgG6Hx8Tdt9nZoF3ZT3mVqQJhuQMiJwqgZyudwDDe+uwCxQ0kZQAyAC/WqAUCgUHmh4dwVdQUkbQQ3EFJE4ztyxbyCT2Z+emnoUMhGkUhE4aKNNqAEogkDUQDab/Y2m90MRQA2ACEKeaSrC4Y0+uWz2CxBBJNXAmptr1gAQwSQ4PVDkvvBxkagNiugKlrCS/Gk+rxFEoGimKQtnUYSEDU15gBqwrh+S/FbhxDXsKQAR+EXNxXd1Sc8SuoElUVvN9vdxhDuIwG8nK7mQlFsROgAzTcRhdaPUttBzrRyQMkXgJrY/SrNOKkwJNgmsTiCqwiQAEaiAGwdTlIiglAISMIT1eRA3sbsQRKCio1WEs6PCCbsR63SVhJNAxYZ419J6jwOIIFw10I5YnVUSTAKji2TMTDby1cAvACJQ1tmqESICt3ZuMYlLjtwubQulRjcaGxgyIAJVcOMk1E4EHs2ORA0IumXahgQoaAjxAiAC5UTgFEH5B3Zdfr+WJBJ48uRJzYYEDDgHQQQq5WdZfiy6+ElQnc/texa4LLE3B4gEJBm8CBIAEURVDQThH/BDOI2YkwD5OdogAYCQWVq62mCbV/uge/z48d9ZdLznMF0orE3l890zkpzy2VWZr6Ojo8rx8fGiy589nTl37r1cNjvJbi5znbY81BHN0Je8lmVCnT2H416vfPT06ZL8Y2F6enpUB8+UrTAz08rnco8i1l+1tL8GeG7/EHAy9gNTBP3BoOSGBAhBdcSpqan/8vCzghxMRtyY/6nMs8w3bfQqmH0loiQAaMTohKL2+vo9rVJXSlG3W1V3P/xw43vj/7C8fO2EZWVe2xry97ZwHuT0ta9ApvrZvficz7KXOnVx25IZWpPOBmCfBs1Qz5wrcPHixZPPL7/8kj5oibAWVXNAZ/tryGdZ95hSlNdG0D4Ct/6BoDujVxnX4jX4KPsD6lyfVoeLbMEnAEWguyOWhMNTiMbQDoEIbnv43SX+bTWCBEAOwaZd3WezWYoYxLkMKUZQisDLIAk0eIWDZdY8/nxRDrpWhAigxPn52I4E8vn8T8+dO4czBUAEgcDw8JswJKofm24lImRAZkBX2J/8RMuDbxYKhX/FMACirAgCJwI+/OSOTzJo9/r9uRDblJZB7UK4N2Uq48BRIDAfgctbhM5K9TDQYOLy6rm/sr+398cXisVuRNt8VdZtA10fCFoReDELtsKqECagmp9nDIfD8/1e79ukDng5MAqgo8VeBwkAcSKCUHe5sWReVfAoctQ9lGTQoSW8EPcnkLlTwdIgEJppIOLjKDxLBg2Xx61bgQKPaGnytnzmNpdvlM6SnsqYhJMDRuELAEIlAq/+gbAVwRgZ1GQZhCIyGOESp0XN2YcvAIiMaeA1SCUyB2Dw0VxrMWpTWhF4FSQARIkIDI+/i5Qty2SwGpM2bUToDggAROBLEUQOPMO+yXY3AIAIXGAhSZXFTjcitzvoOgCIwAH8rJ9H2ctNcQYyURjvq+w72EU30taHytSPor67E0RgjXKSK47scPYdUDlvihCDoBKMlkwPZfo/SQY4QVkj8iAC/wpBnG71bfLMZeRyuXdFJvPn8s8Z4X75dFd4W3JNmhogRTm+c7IoAto2DyJQCyNtlcmksLG8fI0+X5B/N7hTk1/BSt52R55+CksW7s9uSCIaZ/9hMBzOZTMZ1EzMiAB23TcEgdBel76BSWQ4lEQgQASx8xF4XTGA8w1oTPpHvpEJiAsR+Nxcg9kTamDFhAjOo4bipQjKqFpApRpgJijt7u42I7S1G0QAIgCCVAMjDAYDMjlpa3cL8QUgAiBtauB5EGF0JRlUUW3RJQIAUK4GJoBiCz6Qv22iBqNJBLDhAJ1q4Cxu8ClQMBUSpAgQTAM14AXkO+hw8BYA0wBImRoYB5381AYZRIcIINGAINXAWb8ByCAiRLCAqgUCVgOTyAATEkwDIIVqAGSQJCJA5BjUgEJl2kI1QxEA6VQD46Cbquuo8XgSAeQc1IDKXai34TyMJxGg0ZKtBgwbNXBfnIap31f4WpgIMA2AGKkBUgI1PiSW9hHcVKQOFmAixI8IDDRNotWAVfRog498O4H8c5P7g4rDYRtYRYCPAIi+Gtjkgf8M+Kg3Q2QyX/h8Ny0pYoNSjIgAAUnJVAM1GzVQM/sfpBKm8vn/zOVyP/WZjZUQr6cHEXjoNGisdKmBVSd3Nl64cOEH8uO6xnykEpmlpasNZuKuqoce93p/JOjEWR/ISfbPPi8FSSnQ3YNRv+yCTJtLXuxaWXcLdCSXj3rbkvXmpn5GhNvVWSH9weCVQb//rcm9MLMvZ/t/d6gUT9pfPu8l+bzXvOYnn8//PJPJHEat/UMAtX9rdJx5WyhcXnl8cNDkI6WEj4b6t/n5+bN5anI+o37AaYXJteGx7jwTQaFQaM3Ozrqpn5Ecb+mqjF6/P7e/t/f+cDg0y/P3JRE4yfPX7Z/LZsWTJ0/ePj46+q4nwszlPpPq4odRa/8QcNL+IyLorq/fayuU9Spm7PKPf/zhM3nii0M6KvOqAzKf9LHjJZ9+625vb6/j5u5ImVeDPnXWKZ8gZHYC8Z0HD/656TCvZ9uf9hI8kp+3PWTrL37ykx+9E7X2D6GvGjp9BCpmbAQVJQDs67lh8r93/c6avMqw5uGnRZx3+A10EYEKRVBMaVhoOWHlsTI5auMxAz7IoObRHgcRaCYCVTa8kbLZk8p7KWHlMVsuvC8H8IbC1xnCfQQiiCAGiiB1RCCRtBDYloVJoLSsrCxqHlSnARrQRARunFU2WEyZGlhMUHnqFuqm4SRmwEO/I4XhdqMSiEDoDSjaVtSh0iLfGgkigZJFeSaGEYeoquCU1kwEqvwEiScCB6G3cQMN9GIY5g8rjVUQQXSIoA0icDx7NhNUHpLaZmcNrPIGorB8E5NwCTQQD0VQ5BkzqWhZzJ5xVQNmpmIghMeqwHFsAU4v0kgE7DBUddxUIokggQ5C8guYhZYriRnQpApKIAK9UGUeXEnabkQ2CVoJKk/Zwv5fU7iS5GYi2hZAooiA0EigSZAk+9TMQag8ZsAFNjDEo0EEKhuCHFD5hMye1YSZBFblCdok0DURgQh8yLOuULgnu9fvv5IQCW1lEuzGrDxWJs6m4jBit+hgiEdDEYwkoxIMB4OXj46OXop5nW8I81WCOzHsvFYmQS3MjOmIXpwoOy79YUmmjkwtEEEw5kH+8PCwFtfK5n35Zl51Uk6NmJWnJcxjBhpBDUQbbAZEhtSuK0QIL8zk5kAEz7My2Ydrqp7X7/ffiuNGEY6FsNqXH6Yt7aU81yxIwDaMOGKrQJ5VmBz4tTP1sPCnX3z2/kw+Owci0GgeaHqe7kFDASt3Lb5SH4u468akPP9kQWpVi98aMlEZN6Jyx4BXApYkUJnUFzPD4flCLgMimFDRHcUSbYGDV+JCAm2Lr9Aa+7ht2Y14eUbOwYLJVyYqG/odm0YPxemyKUnpKET0bXokgVE9POcf6U3nt3af9h+BCExsRsXPuxX10NAxEjBzDm7x6TpxwoaFn+MXk1YJuB46FqZRHM0CM3/P7i9LL/4APgJzVdAW6h037aheYTU8Pc7digRIQsfK18HOwSsW5flLE99IW0wOnurEkQikGqhb+Ecanz4ZPgIRBKsKilEkg4ODgzd6dD+BDQnEzDnYsuj8VJ6Fs+VhErhrVg8Blb9sN65dkgD5P8xOTd40tv8jljtJAyUCVgVrih+7ICLkPKSTeY6Ojv5RWEdB1iy24/r1ERgaylQT1teYV2V5ticQx10H/gbdsArj3nKzxMnOwZYFGcZ2y3wYV57VhfrouRXueGESADnDNoT9GfvXbaLtulHqIGOzuhlWz24ockAcI1Q0592OFFsuSKAkrIPBqlIN7IAInKuCHaEncIbIIBQzgTsczfCLDkigFZfOwSszViRAJxE3XBKHG9nuF3ZEsOGCBNoW6uKmJIG2iDFCuQSVg010RHxdYZ9BJaCBUmIl8lDY7yR0RAIKtuuWFJWN8nrLSlaLMyHEXO9NhQPVL6yk+poLs6AlzFdK1uLqFxhHmLv5qiyDVZ/OQw32seyUq2dnK5UEwCZO3WH+g1QCFQVla9moG7NIyJbL9tRmU3Pk4oJfs4D3D5jVxZYkgZpIAEK7Fp07kU7nCsUZdFUec0adi4Niujxb6iIBP2qp7KN8FYcmTvWss5MJxO27dR5DZzUJbDpRXkwCKxaKyBAJQTbMl3NjXNf4CpLrd5kQ6l7i23nw18j/IP/6qTgNinE663lVAl0/ZfZYTho4Hzs0cdomxF5TPGD9qAErZ2VNBQnE2TkYJdNg1IFaNiffqiIE8ubflu+iZa42D7a2iY1d4dnNEB5OEcpkMge5fP4TH+ZA22d9jMwWWxwdHVWOj48Nh+S2alUmWg2R9XtHuIsgJOJqKDbjrOr9jp1vIG0kEAki4A5EM67QTAbjpDB6zy0Nz9+amZn5YTaTedfHM/xG3N3g69WbJnH/ZTbL6hcvXnRKdGtOBqv8Tp1NDDf3NJAZt6HiqHO+Ycns3dtWCmRsdWAhTSQQGSIIgQx0ga7bqkkiqPisiw4rFz9nGhLJ0aDsjCmfkdJZcPmsNZd7Iqo2A2riOCRl6IcM+Mi02za+jR0TEqC62bCoc/LbVJNIAqH7CCaRgTg9pSduIC/6TZn/qsKwWRUHuhR5drzFaTEAEhj5Cwzh7pi6Ubh4xSMJ1GxMgptmJCNJwM4/ckcSgJFUEogcEYykpdDrQFQNmikqGu7zi8La9E2vuyN9kkHdBQGUxgKfihZk1pykAuhEIQsTkQj+uiSAukg4slHMFDukXhfRPpd+pAIMTTf70jPXQizbdb/k5oMMyKnbsVpa5NWcOvtTbrlRNHLwl9kh+LGFQjoheEkCLZECRPZ4cLaTSSYS20dtHzuZL40Ads812N4O8kq0bTEhTsAnGVQ4/sJNO9IApaXfuzwod37/5ZcvH+zvNzlmwYn/5BkSIALgOl2xIcFGEqIFY68IxjsRmwqvi2AOobTtWDK9SnkKYgstqwJDBHfE+R02czoaykLt+KZHlUd+jkU6xXowGCw4JIGvzRraOiwT+Vw+tSEBKn85bSQQaUVwVh3QgPibpaudbDYrhHuHl1+ZTB2jFcapvKyMiAw2hKabkTKZzG/lx5Lua8no+azy6kLP0u2JovmD37v4D+/+4td5lv9OFNUaq4CuSClidXNQNpPZKRaLjd3d3S53pqqmwbHLA28j5As6zppJTaF2eXVramqqOz093QnqbsLR7lPe1NRQWJ7dly8W3/v7rf/5E/HZ7o8cmkAnBJ/k1QDHk8HS0lVqDLKd4uAUaXI+v5auh4eHl4+Pj9+QkrEyHA4vy3Tew4x4INMnUm10crlcZ3Z21q80pkFbExru/KMLXuhuB1neN7yWVZbzo3w+/4DLObKhQ2n/Xr8/9+Tx43f6/f7bsjwvWn13bn5ePD08FLK9x8vzKyrLzLlzD/K53P5fHTx6PzsYTHxOP5/71eH0VOd/zxcf/PIw94nGYmlrfw2gfHZHRHDylxhkeoGZ3JTBZWeaGQoxc/Ipk6m6yGb3qR9KlXHyqTifI2fWls7KGAyHJUkIJSaEvDgt73iZD+VIOZSD5alM+6SoMqflHUeZP0NvfzrnkctUPCnH6bmP38jXfH7YHwwO5B+JuHe4PIfj33lhJnd5NjN4uScy+/1h5vB4ODw4Hmb2D44HO/LZvYCKEkj7K8KJCBiZBq319XuNqOd4efkaydeGzGs74vk0OJ9GDOr0pN3j0v5y1kf7a2j/rAAAIPUAEQAAACIAAABEAAAAiAAAABABAAAgAgAAQAQAAIAIAAAAEQAAACIAAABEAAAAiAAAABABAAAgAgAAQAQAAIAIAAAAEQAAACIAAABEAAAAiAAAABABAAAgAgAAQAQAAIAIAAAAEQAAACIAAABEAAAAiAAAABABAAAgAgAAQAQAAIAIAAAAEQAAACIAAABEAAAAiAAAABABAAAgAgAAQAQAADhEZmnpakN+GjK1Y5DfGuezG/F8lrlOWzGoU4M/0f7pbf82EYEx1hkAAEgf2v8vwADt4XjtkDObpgAAAABJRU5ErkJggg==;" parent="1" vertex="1">
                    <mxGeometry x="740" y="995" width="90" height="90" as="geometry"/>
                </mxCell>
                <mxCell id="33" style="edgeStyle=none;html=1;" parent="1" source="26" target="30" edge="1">
                    <mxGeometry relative="1" as="geometry"/>
                </mxCell>
                <mxCell id="26" value="api-service&lt;br&gt;configurations" style="aspect=fixed;html=1;points=[];align=center;image;fontSize=12;image=img/lib/azure2/integration/API_Management_Services.svg;" parent="1" vertex="1">
                    <mxGeometry x="110" y="240" width="65" height="60" as="geometry"/>
                </mxCell>
                <mxCell id="32" style="edgeStyle=none;html=1;startArrow=none;" parent="1" source="38" target="31" edge="1">
                    <mxGeometry relative="1" as="geometry"/>
                </mxCell>
                <mxCell id="27" value="api-service&lt;br&gt;accounts" style="aspect=fixed;html=1;points=[];align=center;image;fontSize=12;image=img/lib/azure2/integration/API_Management_Services.svg;" parent="1" vertex="1">
                    <mxGeometry x="651.5" y="230" width="65" height="60" as="geometry"/>
                </mxCell>
                <mxCell id="82" style="edgeStyle=none;html=1;entryX=0;entryY=0.5;entryDx=0;entryDy=0;entryPerimeter=0;fontColor=default;" parent="1" source="30" target="78" edge="1">
                    <mxGeometry relative="1" as="geometry"/>
                </mxCell>
                <mxCell id="89" style="edgeStyle=none;html=1;entryX=0.99;entryY=0.5;entryDx=0;entryDy=0;entryPerimeter=0;fontColor=default;" parent="1" source="30" target="86" edge="1">
                    <mxGeometry relative="1" as="geometry"/>
                </mxCell>
                <mxCell id="30" value="data-service" style="aspect=fixed;html=1;points=[];align=center;image;fontSize=12;image=img/lib/azure2/databases/Azure_Database_PostgreSQL_Server.svg;" parent="1" vertex="1">
                    <mxGeometry x="118.5" y="30" width="48" height="64" as="geometry"/>
                </mxCell>
                <mxCell id="79" style="edgeStyle=none;html=1;fontColor=default;" parent="1" source="31" target="78" edge="1">
                    <mxGeometry relative="1" as="geometry"/>
                </mxCell>
                <mxCell id="81" style="edgeStyle=none;html=1;entryX=0.255;entryY=0.265;entryDx=0;entryDy=0;entryPerimeter=0;fontColor=default;" parent="1" source="31" target="80" edge="1">
                    <mxGeometry relative="1" as="geometry"/>
                </mxCell>
                <mxCell id="31" value="data-service" style="aspect=fixed;html=1;points=[];align=center;image;fontSize=12;image=img/lib/azure2/databases/Azure_Database_PostgreSQL_Server.svg;" parent="1" vertex="1">
                    <mxGeometry x="660" y="30" width="48" height="64" as="geometry"/>
                </mxCell>
                <mxCell id="57" style="edgeStyle=none;html=1;fontColor=default;" parent="1" source="34" target="27" edge="1">
                    <mxGeometry relative="1" as="geometry"/>
                </mxCell>
                <mxCell id="34" value="emails" style="sketch=0;html=1;dashed=0;whitespace=wrap;fillColor=#2875E2;strokeColor=#ffffff;points=[[0.005,0.63,0],[0.1,0.2,0],[0.9,0.2,0],[0.5,0,0],[0.995,0.63,0],[0.72,0.99,0],[0.5,1,0],[0.28,0.99,0]];shape=mxgraph.kubernetes.icon;prIcon=api;labelPosition=center;verticalLabelPosition=bottom;align=center;verticalAlign=top;" parent="1" vertex="1">
                    <mxGeometry x="704" y="420" width="50" height="48" as="geometry"/>
                </mxCell>
                <mxCell id="38" value="Token" style="sketch=0;pointerEvents=1;shadow=0;dashed=0;html=1;strokeColor=none;fillColor=#505050;labelPosition=center;verticalLabelPosition=bottom;verticalAlign=top;outlineConnect=0;align=center;shape=mxgraph.office.security.token;" parent="1" vertex="1">
                    <mxGeometry x="669.5" y="130" width="29" height="37" as="geometry"/>
                </mxCell>
                <mxCell id="39" value="" style="edgeStyle=none;html=1;endArrow=none;" parent="1" source="27" target="38" edge="1">
                    <mxGeometry relative="1" as="geometry">
                        <mxPoint x="595" y="516" as="sourcePoint"/>
                        <mxPoint x="760" y="516" as="targetPoint"/>
                    </mxGeometry>
                </mxCell>
                <mxCell id="54" style="edgeStyle=none;html=1;fontColor=default;" parent="1" source="40" target="44" edge="1">
                    <mxGeometry relative="1" as="geometry"/>
                </mxCell>
                <mxCell id="71" style="edgeStyle=none;html=1;entryX=0;entryY=0.5;entryDx=0;entryDy=0;entryPerimeter=0;fontColor=default;" parent="1" source="40" target="70" edge="1">
                    <mxGeometry relative="1" as="geometry"/>
                </mxCell>
                <mxCell id="95" style="edgeStyle=none;html=1;entryX=-0.008;entryY=0.46;entryDx=0;entryDy=0;entryPerimeter=0;fontColor=default;" parent="1" source="40" target="74" edge="1">
                    <mxGeometry relative="1" as="geometry"/>
                </mxCell>
                <mxCell id="123" style="edgeStyle=none;html=1;fontColor=default;" parent="1" source="40" target="122" edge="1">
                    <mxGeometry relative="1" as="geometry"/>
                </mxCell>
                <mxCell id="40" value="api gateway" style="sketch=0;points=[[0,0,0],[0.25,0,0],[0.5,0,0],[0.75,0,0],[1,0,0],[0,1,0],[0.25,1,0],[0.5,1,0],[0.75,1,0],[1,1,0],[0,0.25,0],[0,0.5,0],[0,0.75,0],[1,0.25,0],[1,0.5,0],[1,0.75,0]];outlineConnect=0;fontColor=default;gradientColor=#945DF2;gradientDirection=north;fillColor=#5A30B5;strokeColor=#ffffff;dashed=0;verticalLabelPosition=bottom;verticalAlign=top;align=center;html=1;fontSize=12;fontStyle=0;aspect=fixed;shape=mxgraph.aws4.resourceIcon;resIcon=mxgraph.aws4.api_gateway;" parent="1" vertex="1">
                    <mxGeometry x="536" y="770" width="78" height="78" as="geometry"/>
                </mxCell>
                <mxCell id="50" style="edgeStyle=none;html=1;fontColor=default;" parent="1" source="44" edge="1">
                    <mxGeometry relative="1" as="geometry">
                        <mxPoint x="798.7297297297298" y="468" as="targetPoint"/>
                    </mxGeometry>
                </mxCell>
                <mxCell id="51" style="edgeStyle=none;html=1;fontColor=default;" parent="1" source="44" target="34" edge="1">
                    <mxGeometry relative="1" as="geometry"/>
                </mxCell>
                <mxCell id="52" style="edgeStyle=none;html=1;fontColor=default;" parent="1" source="44" target="45" edge="1">
                    <mxGeometry relative="1" as="geometry"/>
                </mxCell>
                <mxCell id="53" style="edgeStyle=none;html=1;fontColor=default;" parent="1" source="44" target="47" edge="1">
                    <mxGeometry relative="1" as="geometry"/>
                </mxCell>
                <mxCell id="44" value="sign-openapi" style="sketch=0;outlineConnect=0;fontColor=default;gradientColor=none;fillColor=#B0084D;strokeColor=none;dashed=0;verticalLabelPosition=bottom;verticalAlign=top;align=center;html=1;fontSize=12;fontStyle=0;aspect=fixed;pointerEvents=1;shape=mxgraph.aws4.endpoint;" parent="1" vertex="1">
                    <mxGeometry x="721" y="580" width="78" height="78" as="geometry"/>
                </mxCell>
                <mxCell id="56" style="edgeStyle=none;html=1;fontColor=default;" parent="1" source="45" target="27" edge="1">
                    <mxGeometry relative="1" as="geometry"/>
                </mxCell>
                <mxCell id="45" value="authentication" style="sketch=0;html=1;dashed=0;whitespace=wrap;fillColor=#2875E2;strokeColor=#ffffff;points=[[0.005,0.63,0],[0.1,0.2,0],[0.9,0.2,0],[0.5,0,0],[0.995,0.63,0],[0.72,0.99,0],[0.5,1,0],[0.28,0.99,0]];shape=mxgraph.kubernetes.icon;prIcon=api;labelPosition=center;verticalLabelPosition=bottom;align=center;verticalAlign=top;" parent="1" vertex="1">
                    <mxGeometry x="614" y="420" width="50" height="48" as="geometry"/>
                </mxCell>
                <mxCell id="58" style="edgeStyle=none;html=1;fontColor=default;" parent="1" source="46" target="27" edge="1">
                    <mxGeometry relative="1" as="geometry"/>
                </mxCell>
                <mxCell id="46" value="users" style="sketch=0;html=1;dashed=0;whitespace=wrap;fillColor=#2875E2;strokeColor=#ffffff;points=[[0.005,0.63,0],[0.1,0.2,0],[0.9,0.2,0],[0.5,0,0],[0.995,0.63,0],[0.72,0.99,0],[0.5,1,0],[0.28,0.99,0]];shape=mxgraph.kubernetes.icon;prIcon=api;labelPosition=center;verticalLabelPosition=bottom;align=center;verticalAlign=top;" parent="1" vertex="1">
                    <mxGeometry x="780" y="420" width="50" height="48" as="geometry"/>
                </mxCell>
                <mxCell id="55" style="edgeStyle=none;html=1;fontColor=default;" parent="1" source="47" target="27" edge="1">
                    <mxGeometry relative="1" as="geometry"/>
                </mxCell>
                <mxCell id="47" value="persons" style="sketch=0;html=1;dashed=0;whitespace=wrap;fillColor=#2875E2;strokeColor=#ffffff;points=[[0.005,0.63,0],[0.1,0.2,0],[0.9,0.2,0],[0.5,0,0],[0.995,0.63,0],[0.72,0.99,0],[0.5,1,0],[0.28,0.99,0]];shape=mxgraph.kubernetes.icon;prIcon=api;labelPosition=center;verticalLabelPosition=bottom;align=center;verticalAlign=top;" parent="1" vertex="1">
                    <mxGeometry x="532" y="420" width="50" height="48" as="geometry"/>
                </mxCell>
                <mxCell id="64" style="edgeStyle=none;html=1;fontColor=default;" parent="1" source="48" target="27" edge="1">
                    <mxGeometry relative="1" as="geometry"/>
                </mxCell>
                <mxCell id="48" value="passwords" style="sketch=0;html=1;dashed=0;whitespace=wrap;fillColor=#2875E2;strokeColor=#ffffff;points=[[0.005,0.63,0],[0.1,0.2,0],[0.9,0.2,0],[0.5,0,0],[0.995,0.63,0],[0.72,0.99,0],[0.5,1,0],[0.28,0.99,0]];shape=mxgraph.kubernetes.icon;prIcon=api;labelPosition=center;verticalLabelPosition=bottom;align=center;verticalAlign=top;" parent="1" vertex="1">
                    <mxGeometry x="360" y="420" width="50" height="48" as="geometry"/>
                </mxCell>
                <mxCell id="63" style="edgeStyle=none;html=1;fontColor=default;" parent="1" source="49" edge="1">
                    <mxGeometry relative="1" as="geometry">
                        <mxPoint x="650" y="270" as="targetPoint"/>
                    </mxGeometry>
                </mxCell>
                <mxCell id="49" value="phones" style="sketch=0;html=1;dashed=0;whitespace=wrap;fillColor=#2875E2;strokeColor=#ffffff;points=[[0.005,0.63,0],[0.1,0.2,0],[0.9,0.2,0],[0.5,0,0],[0.995,0.63,0],[0.72,0.99,0],[0.5,1,0],[0.28,0.99,0]];shape=mxgraph.kubernetes.icon;prIcon=api;labelPosition=center;verticalLabelPosition=bottom;align=center;verticalAlign=top;" parent="1" vertex="1">
                    <mxGeometry x="454" y="420" width="50" height="48" as="geometry"/>
                </mxCell>
                <mxCell id="60" style="edgeStyle=none;html=1;fontColor=default;" parent="1" source="59" target="49" edge="1">
                    <mxGeometry relative="1" as="geometry"/>
                </mxCell>
                <mxCell id="65" style="edgeStyle=none;html=1;entryX=0.25;entryY=0;entryDx=0;entryDy=0;entryPerimeter=0;fontColor=default;" parent="1" source="59" target="40" edge="1">
                    <mxGeometry relative="1" as="geometry"/>
                </mxCell>
                <mxCell id="59" value="sign-phone" style="sketch=0;outlineConnect=0;fontColor=default;gradientColor=none;fillColor=#B0084D;strokeColor=none;dashed=0;verticalLabelPosition=bottom;verticalAlign=top;align=center;html=1;fontSize=12;fontStyle=0;aspect=fixed;pointerEvents=1;shape=mxgraph.aws4.endpoint;" parent="1" vertex="1">
                    <mxGeometry x="573.5" y="580" width="78" height="78" as="geometry"/>
                </mxCell>
                <mxCell id="62" style="edgeStyle=none;html=1;fontColor=default;" parent="1" source="61" target="48" edge="1">
                    <mxGeometry relative="1" as="geometry"/>
                </mxCell>
                <mxCell id="66" style="edgeStyle=none;html=1;entryX=0;entryY=0.25;entryDx=0;entryDy=0;entryPerimeter=0;fontColor=default;" parent="1" source="61" target="40" edge="1">
                    <mxGeometry relative="1" as="geometry"/>
                </mxCell>
                <mxCell id="61" value="sign-password" style="sketch=0;outlineConnect=0;fontColor=default;gradientColor=none;fillColor=#B0084D;strokeColor=none;dashed=0;verticalLabelPosition=bottom;verticalAlign=top;align=center;html=1;fontSize=12;fontStyle=0;aspect=fixed;pointerEvents=1;shape=mxgraph.aws4.endpoint;" parent="1" vertex="1">
                    <mxGeometry x="470" y="580" width="78" height="78" as="geometry"/>
                </mxCell>
                <mxCell id="70" value="redis" style="outlineConnect=0;dashed=0;verticalLabelPosition=bottom;verticalAlign=top;align=center;html=1;shape=mxgraph.aws3.redis;fillColor=#2E73B8;gradientColor=none;fontColor=default;" parent="1" vertex="1">
                    <mxGeometry x="730" y="740" width="60" height="63" as="geometry"/>
                </mxCell>
                <mxCell id="97" style="edgeStyle=none;html=1;fontColor=default;" parent="1" source="72" target="96" edge="1">
                    <mxGeometry relative="1" as="geometry"/>
                </mxCell>
                <mxCell id="72" value="api donmain" style="aspect=fixed;html=1;points=[];align=center;image;fontSize=12;image=img/lib/azure2/networking/DNS_Zones.svg;fontColor=default;" parent="1" vertex="1">
                    <mxGeometry x="130" y="880" width="64" height="64" as="geometry"/>
                </mxCell>
                <mxCell id="74" value="monitor" style="sketch=0;aspect=fixed;html=1;points=[];align=center;image;fontSize=12;image=img/lib/mscae/Monitor.svg;fontColor=default;" parent="1" vertex="1">
                    <mxGeometry x="740" y="830" width="50" height="50" as="geometry"/>
                </mxCell>
                <mxCell id="77" style="edgeStyle=none;html=1;fontColor=default;" parent="1" source="76" target="72" edge="1">
                    <mxGeometry relative="1" as="geometry"/>
                </mxCell>
                <mxCell id="119" style="edgeStyle=none;html=1;fontColor=default;" parent="1" source="76" target="117" edge="1">
                    <mxGeometry relative="1" as="geometry"/>
                </mxCell>
                <mxCell id="120" style="edgeStyle=none;html=1;entryX=0.972;entryY=-0.013;entryDx=0;entryDy=0;entryPerimeter=0;fontColor=default;" parent="1" source="76" target="116" edge="1">
                    <mxGeometry relative="1" as="geometry"/>
                </mxCell>
                <mxCell id="121" style="edgeStyle=none;html=1;fontColor=default;" parent="1" source="76" target="118" edge="1">
                    <mxGeometry relative="1" as="geometry"/>
                </mxCell>
                <mxCell id="76" value="secure" style="sketch=0;aspect=fixed;html=1;points=[];align=center;image;fontSize=12;image=img/lib/mscae/DDOS_Protection_Plans.svg;fontColor=default;" parent="1" vertex="1">
                    <mxGeometry x="388" y="880" width="37" height="50" as="geometry"/>
                </mxCell>
                <mxCell id="78" value="replica" style="outlineConnect=0;dashed=0;verticalLabelPosition=bottom;verticalAlign=top;align=center;html=1;shape=mxgraph.aws3.rds_db_instance_read_replica;fillColor=#2E73B8;gradientColor=none;fontColor=default;" parent="1" vertex="1">
                    <mxGeometry x="410" y="28" width="49.5" height="66" as="geometry"/>
                </mxCell>
                <mxCell id="80" value="backup" style="verticalLabelPosition=bottom;html=1;verticalAlign=top;align=center;strokeColor=none;fillColor=#00BEF2;shape=mxgraph.azure.backup_service;fontColor=default;" parent="1" vertex="1">
                    <mxGeometry x="770" y="49" width="50" height="45" as="geometry"/>
                </mxCell>
                <mxCell id="86" value="backup" style="verticalLabelPosition=bottom;html=1;verticalAlign=top;align=center;strokeColor=none;fillColor=#00BEF2;shape=mxgraph.azure.backup_service;fontColor=default;" parent="1" vertex="1">
                    <mxGeometry x="20" y="38.5" width="50" height="45" as="geometry"/>
                </mxCell>
                <mxCell id="91" style="edgeStyle=none;html=1;fontColor=default;" parent="1" source="90" target="26" edge="1">
                    <mxGeometry relative="1" as="geometry">
                        <mxPoint x="180" y="243.9999999999999" as="targetPoint"/>
                    </mxGeometry>
                </mxCell>
                <mxCell id="92" style="edgeStyle=none;html=1;fontColor=default;" parent="1" source="90" target="27" edge="1">
                    <mxGeometry relative="1" as="geometry"/>
                </mxCell>
                <mxCell id="94" style="edgeStyle=none;html=1;entryX=0.698;entryY=1.084;entryDx=0;entryDy=0;entryPerimeter=0;fontColor=default;" parent="1" source="90" target="93" edge="1">
                    <mxGeometry relative="1" as="geometry"/>
                </mxCell>
                <mxCell id="90" value="trafic manager" style="aspect=fixed;html=1;points=[];align=center;image;fontSize=12;image=img/lib/azure2/networking/Traffic_Manager_Profiles.svg;fontColor=default;" parent="1" vertex="1">
                    <mxGeometry x="410" y="232" width="68" height="68" as="geometry"/>
                </mxCell>
                <mxCell id="93" value="trafic balancer" style="verticalLabelPosition=bottom;html=1;verticalAlign=top;align=center;strokeColor=none;fillColor=#00BEF2;shape=mxgraph.azure.traffic_manager;pointerEvents=1;fontColor=default;" parent="1" vertex="1">
                    <mxGeometry x="412" y="140" width="50" height="50" as="geometry"/>
                </mxCell>
                <mxCell id="98" style="edgeStyle=none;html=1;fontColor=default;" parent="1" source="96" target="40" edge="1">
                    <mxGeometry relative="1" as="geometry"/>
                </mxCell>
                <mxCell id="96" value="Firewall" style="aspect=fixed;html=1;points=[];align=center;image;fontSize=12;image=img/lib/azure2/networking/Web_Application_Firewall_Policies_WAF.svg;fontColor=default;" parent="1" vertex="1">
                    <mxGeometry x="240" y="790" width="68" height="68" as="geometry"/>
                </mxCell>
                <mxCell id="101" style="edgeStyle=none;html=1;entryX=0.5;entryY=1.458;entryDx=0;entryDy=0;entryPerimeter=0;fontColor=default;" parent="1" source="99" target="100" edge="1">
                    <mxGeometry relative="1" as="geometry"/>
                </mxCell>
                <mxCell id="113" style="edgeStyle=none;html=1;fontColor=default;" parent="1" source="99" target="40" edge="1">
                    <mxGeometry relative="1" as="geometry"/>
                </mxCell>
                <mxCell id="99" value="configuration&lt;br&gt;dictionary" style="sketch=0;outlineConnect=0;fontColor=default;gradientColor=none;fillColor=#B0084D;strokeColor=none;dashed=0;verticalLabelPosition=bottom;verticalAlign=top;align=center;html=1;fontSize=12;fontStyle=0;aspect=fixed;pointerEvents=1;shape=mxgraph.aws4.endpoint;" parent="1" vertex="1">
                    <mxGeometry x="210" y="580" width="78" height="78" as="geometry"/>
                </mxCell>
                <mxCell id="102" style="edgeStyle=none;html=1;fontColor=default;" parent="1" source="100" target="26" edge="1">
                    <mxGeometry relative="1" as="geometry"/>
                </mxCell>
                <mxCell id="100" value="dictionary" style="sketch=0;html=1;dashed=0;whitespace=wrap;fillColor=#2875E2;strokeColor=#ffffff;points=[[0.005,0.63,0],[0.1,0.2,0],[0.9,0.2,0],[0.5,0,0],[0.995,0.63,0],[0.72,0.99,0],[0.5,1,0],[0.28,0.99,0]];shape=mxgraph.kubernetes.icon;prIcon=api;labelPosition=center;verticalLabelPosition=bottom;align=center;verticalAlign=top;" parent="1" vertex="1">
                    <mxGeometry x="160" y="430" width="50" height="48" as="geometry"/>
                </mxCell>
                <mxCell id="111" style="edgeStyle=none;html=1;fontColor=default;" parent="1" source="103" target="26" edge="1">
                    <mxGeometry relative="1" as="geometry"/>
                </mxCell>
                <mxCell id="103" value="culture" style="sketch=0;html=1;dashed=0;whitespace=wrap;fillColor=#2875E2;strokeColor=#ffffff;points=[[0.005,0.63,0],[0.1,0.2,0],[0.9,0.2,0],[0.5,0,0],[0.995,0.63,0],[0.72,0.99,0],[0.5,1,0],[0.28,0.99,0]];shape=mxgraph.kubernetes.icon;prIcon=api;labelPosition=center;verticalLabelPosition=bottom;align=center;verticalAlign=top;" parent="1" vertex="1">
                    <mxGeometry x="90" y="430" width="50" height="48" as="geometry"/>
                </mxCell>
                <mxCell id="110" style="edgeStyle=none;html=1;fontColor=default;" parent="1" source="104" target="26" edge="1">
                    <mxGeometry relative="1" as="geometry"/>
                </mxCell>
                <mxCell id="104" value="currency" style="sketch=0;html=1;dashed=0;whitespace=wrap;fillColor=#2875E2;strokeColor=#ffffff;points=[[0.005,0.63,0],[0.1,0.2,0],[0.9,0.2,0],[0.5,0,0],[0.995,0.63,0],[0.72,0.99,0],[0.5,1,0],[0.28,0.99,0]];shape=mxgraph.kubernetes.icon;prIcon=api;labelPosition=center;verticalLabelPosition=bottom;align=center;verticalAlign=top;" parent="1" vertex="1">
                    <mxGeometry x="240" y="430" width="50" height="48" as="geometry"/>
                </mxCell>
                <mxCell id="108" style="edgeStyle=none;html=1;fontColor=default;" parent="1" source="105" target="103" edge="1">
                    <mxGeometry relative="1" as="geometry"/>
                </mxCell>
                <mxCell id="114" style="edgeStyle=none;html=1;entryX=0;entryY=0.5;entryDx=0;entryDy=0;entryPerimeter=0;fontColor=default;" parent="1" source="105" target="40" edge="1">
                    <mxGeometry relative="1" as="geometry"/>
                </mxCell>
                <mxCell id="105" value="configuration&lt;br&gt;culture" style="sketch=0;outlineConnect=0;fontColor=default;gradientColor=none;fillColor=#B0084D;strokeColor=none;dashed=0;verticalLabelPosition=bottom;verticalAlign=top;align=center;html=1;fontSize=12;fontStyle=0;aspect=fixed;pointerEvents=1;shape=mxgraph.aws4.endpoint;" parent="1" vertex="1">
                    <mxGeometry x="103.5" y="580" width="78" height="78" as="geometry"/>
                </mxCell>
                <mxCell id="109" style="edgeStyle=none;html=1;fontColor=default;" parent="1" source="106" target="104" edge="1">
                    <mxGeometry relative="1" as="geometry"/>
                </mxCell>
                <mxCell id="112" style="edgeStyle=none;html=1;fontColor=default;" parent="1" source="106" target="40" edge="1">
                    <mxGeometry relative="1" as="geometry"/>
                </mxCell>
                <mxCell id="106" value="configuration&lt;br&gt;currency" style="sketch=0;outlineConnect=0;fontColor=default;gradientColor=none;fillColor=#B0084D;strokeColor=none;dashed=0;verticalLabelPosition=bottom;verticalAlign=top;align=center;html=1;fontSize=12;fontStyle=0;aspect=fixed;pointerEvents=1;shape=mxgraph.aws4.endpoint;" parent="1" vertex="1">
                    <mxGeometry x="346" y="580" width="78" height="78" as="geometry"/>
                </mxCell>
                <mxCell id="116" value="mobile" style="verticalLabelPosition=bottom;verticalAlign=top;html=1;shadow=0;dashed=0;strokeWidth=1;shape=mxgraph.android.phone2;strokeColor=#c0c0c0;fontColor=default;" parent="1" vertex="1">
                    <mxGeometry x="280" y="980" width="40" height="70" as="geometry"/>
                </mxCell>
                <mxCell id="117" value="desktop" style="sketch=0;outlineConnect=0;gradientColor=none;fontColor=default;strokeColor=none;fillColor=#879196;dashed=0;verticalLabelPosition=bottom;verticalAlign=top;align=center;html=1;fontSize=12;fontStyle=0;aspect=fixed;shape=mxgraph.aws4.illustration_desktop;pointerEvents=1;" parent="1" vertex="1">
                    <mxGeometry x="380.68" y="980" width="81.32" height="74" as="geometry"/>
                </mxCell>
                <mxCell id="118" value="browser" style="aspect=fixed;html=1;points=[];align=center;image;fontSize=12;image=img/lib/azure2/general/Browser.svg;fontColor=default;" parent="1" vertex="1">
                    <mxGeometry x="515.13" y="980" width="83.75" height="67" as="geometry"/>
                </mxCell>
                <mxCell id="124" style="edgeStyle=none;html=1;entryX=0.25;entryY=0;entryDx=0;entryDy=0;fontColor=default;" parent="1" source="122" target="24" edge="1">
                    <mxGeometry relative="1" as="geometry"/>
                </mxCell>
                <mxCell id="122" value="api dev portal" style="aspect=fixed;html=1;points=[];align=center;image;fontSize=12;image=img/lib/azure2/general/Management_Portal.svg;fontColor=default;" parent="1" vertex="1">
                    <mxGeometry x="639" y="910" width="60" height="48" as="geometry"/>
                </mxCell>
            </root>
        </mxGraphModel>
    </diagram>
</mxfile>